<svg width="205" height="205" viewBox="0 0 205 205" fill="none" xmlns="http://www.w3.org/2000/svg">
<circle cx="102.5" cy="102.5" r="102.5" fill="#FFCC00"/>
<path d="M49.0828 77.2199C50.5311 76.0697 51.1913 75.5373 51.0635 75.6225C55.2381 72.1721 58.5181 69.3393 60.9035 67.1243C63.3316 64.9092 65.3763 62.5877 67.0376 60.1596C68.6989 57.7316 69.5295 55.3674 69.5295 53.0671C69.5295 51.3206 69.1248 49.9575 68.3155 48.9778C67.5061 47.998 66.2921 47.5082 64.6734 47.5082C63.0547 47.5082 61.7768 48.1258 60.8397 49.3612C59.9451 50.5539 59.4978 52.2578 59.4978 54.4729H48.955C49.0402 50.8521 49.8069 47.8277 51.2552 45.3996C52.7461 42.9716 54.6843 41.1825 57.0698 40.0323C59.4978 38.8822 62.1815 38.3071 65.1207 38.3071C70.1898 38.3071 74.0023 39.6064 76.5581 42.2048C79.1565 44.8032 80.4558 48.1897 80.4558 52.3643C80.4558 56.9222 78.901 61.1606 75.7913 65.0796C72.6817 68.956 68.7202 72.7471 63.9067 76.4531H81.1586V85.3347H49.0828V77.2199ZM85.9693 62.0126C85.9693 54.6858 87.375 48.9139 90.1864 44.6967C93.0405 40.4796 97.6197 38.371 103.924 38.371C110.229 38.371 114.786 40.4796 117.598 44.6967C120.452 48.9139 121.879 54.6858 121.879 62.0126C121.879 69.4245 120.452 75.2391 117.598 79.4562C114.786 83.6734 110.229 85.7819 103.924 85.7819C97.6197 85.7819 93.0405 83.6734 90.1864 79.4562C87.375 75.2391 85.9693 69.4245 85.9693 62.0126ZM111.144 62.0126C111.144 57.7103 110.676 54.409 109.739 52.1087C108.802 49.7658 106.863 48.5944 103.924 48.5944C100.985 48.5944 99.0467 49.7658 98.1096 52.1087C97.1724 54.409 96.7038 57.7103 96.7038 62.0126C96.7038 64.9092 96.8742 67.316 97.215 69.2329C97.5558 71.1071 98.2373 72.6406 99.2597 73.8334C100.325 74.9835 101.879 75.5586 103.924 75.5586C105.969 75.5586 107.502 74.9835 108.525 73.8334C109.59 72.6406 110.292 71.1071 110.633 69.2329C110.974 67.316 111.144 64.9092 111.144 62.0126ZM126.757 51.0864C126.757 47.636 127.737 44.9736 129.696 43.0993C131.698 41.2251 134.275 40.2879 137.428 40.2879C140.58 40.2879 143.136 41.2251 145.095 43.0993C147.055 44.9736 148.034 47.636 148.034 51.0864C148.034 54.5367 147.055 57.1991 145.095 59.0734C143.136 60.9477 140.58 61.8848 137.428 61.8848C134.275 61.8848 131.698 60.9477 129.696 59.0734C127.737 57.1991 126.757 54.5367 126.757 51.0864ZM170.142 40.9908L145.542 85.9736H135L159.6 40.9908H170.142ZM137.364 46.6775C135.319 46.6775 134.297 48.1471 134.297 51.0864C134.297 53.983 135.319 55.4313 137.364 55.4313C138.343 55.4313 139.11 55.0692 139.664 54.3451C140.218 53.6209 140.495 52.5347 140.495 51.0864C140.495 48.1471 139.451 46.6775 137.364 46.6775ZM157.172 75.878C157.172 72.4277 158.151 69.7653 160.111 67.891C162.07 66.0167 164.626 65.0796 167.778 65.0796C170.93 65.0796 173.486 66.0167 175.446 67.891C177.405 69.7653 178.385 72.4277 178.385 75.878C178.385 79.3284 177.405 81.9908 175.446 83.8651C173.486 85.7393 170.93 86.6765 167.778 86.6765C164.626 86.6765 162.07 85.7393 160.111 83.8651C158.151 81.9908 157.172 79.3284 157.172 75.878ZM167.714 71.4692C166.735 71.4692 165.968 71.8313 165.414 72.5554C164.903 73.2796 164.647 74.3871 164.647 75.878C164.647 78.7747 165.67 80.223 167.714 80.223C168.694 80.223 169.461 79.8609 170.015 79.1367C170.568 78.4126 170.845 77.3264 170.845 75.878C170.845 74.4297 170.568 73.3435 170.015 72.6193C169.461 71.8526 168.694 71.4692 167.714 71.4692Z" fill="white"/>
<path d="M33.013 115.072C35.3772 115.072 37.4431 115.541 39.2109 116.478C40.9787 117.415 42.3418 118.736 43.3003 120.44C44.28 122.122 44.7699 124.071 44.7699 126.286C44.7699 128.48 44.28 130.429 43.3003 132.133C42.3418 133.837 40.9681 135.157 39.179 136.094C37.4112 137.031 35.3559 137.5 33.013 137.5H24.6107V115.072H33.013ZM32.6616 132.772C34.7275 132.772 36.3356 132.207 37.4857 131.078C38.6359 129.95 39.2109 128.352 39.2109 126.286C39.2109 124.22 38.6359 122.612 37.4857 121.462C36.3356 120.312 34.7275 119.737 32.6616 119.737H30.0738V132.772H32.6616ZM53.286 115.072V137.5H47.8229V115.072H53.286ZM65.3599 137.724C63.7199 137.724 62.2503 137.457 60.9511 136.925C59.6519 136.392 58.6082 135.604 57.8202 134.561C57.0534 133.517 56.6487 132.261 56.6061 130.791H62.4207C62.5059 131.622 62.7934 132.261 63.2833 132.708C63.7732 133.134 64.4121 133.347 65.2002 133.347C66.0095 133.347 66.6485 133.166 67.117 132.804C67.5856 132.42 67.8199 131.898 67.8199 131.238C67.8199 130.684 67.6282 130.226 67.2448 129.864C66.8828 129.502 66.4248 129.204 65.8711 128.97C65.3386 128.736 64.5719 128.469 63.5708 128.171C62.1225 127.724 60.9404 127.277 60.0246 126.829C59.1087 126.382 58.3207 125.722 57.6604 124.849C57.0002 123.975 56.67 122.836 56.67 121.43C56.67 119.343 57.4261 117.714 58.9383 116.542C60.4506 115.349 62.4207 114.753 64.8487 114.753C67.3194 114.753 69.3108 115.349 70.823 116.542C72.3352 117.714 73.1446 119.354 73.2511 121.462H67.3407C67.2981 120.738 67.0319 120.174 66.542 119.769C66.0521 119.343 65.4238 119.13 64.657 119.13C63.9968 119.13 63.4643 119.311 63.0596 119.673C62.655 120.014 62.4526 120.514 62.4526 121.175C62.4526 121.899 62.7934 122.463 63.475 122.868C64.1565 123.272 65.2215 123.709 66.6698 124.178C68.1181 124.668 69.2895 125.136 70.1841 125.583C71.0999 126.031 71.888 126.68 72.5482 127.532C73.2085 128.384 73.5386 129.481 73.5386 130.823C73.5386 132.101 73.2085 133.262 72.5482 134.305C71.9093 135.349 70.9721 136.179 69.7368 136.797C68.5015 137.415 67.0425 137.724 65.3599 137.724ZM75.9741 126.254C75.9741 124.039 76.4534 122.069 77.4118 120.344C78.3703 118.597 79.7014 117.245 81.4053 116.286C83.1305 115.307 85.0793 114.817 87.2518 114.817C89.9141 114.817 92.1931 115.52 94.0887 116.925C95.9843 118.331 97.2516 120.248 97.8905 122.676H91.8843C91.437 121.739 90.798 121.025 89.9674 120.536C89.158 120.046 88.2316 119.801 87.1879 119.801C85.5053 119.801 84.1422 120.386 83.0986 121.558C82.0549 122.729 81.5331 124.295 81.5331 126.254C81.5331 128.214 82.0549 129.779 83.0986 130.951C84.1422 132.122 85.5053 132.708 87.1879 132.708C88.2316 132.708 89.158 132.463 89.9674 131.973C90.798 131.483 91.437 130.77 91.8843 129.832H97.8905C97.2516 132.261 95.9843 134.177 94.0887 135.583C92.1931 136.968 89.9141 137.66 87.2518 137.66C85.0793 137.66 83.1305 137.181 81.4053 136.222C79.7014 135.242 78.3703 133.89 77.4118 132.165C76.4534 130.439 75.9741 128.469 75.9741 126.254ZM111.843 137.724C109.734 137.724 107.796 137.234 106.028 136.254C104.282 135.274 102.887 133.911 101.843 132.165C100.821 130.397 100.31 128.416 100.31 126.222C100.31 124.029 100.821 122.058 101.843 120.312C102.887 118.565 104.282 117.202 106.028 116.223C107.796 115.243 109.734 114.753 111.843 114.753C113.951 114.753 115.879 115.243 117.625 116.223C119.393 117.202 120.778 118.565 121.779 120.312C122.801 122.058 123.312 124.029 123.312 126.222C123.312 128.416 122.801 130.397 121.779 132.165C120.756 133.911 119.372 135.274 117.625 136.254C115.879 137.234 113.951 137.724 111.843 137.724ZM111.843 132.74C113.632 132.74 115.059 132.143 116.124 130.951C117.21 129.758 117.753 128.182 117.753 126.222C117.753 124.242 117.21 122.665 116.124 121.494C115.059 120.301 113.632 119.705 111.843 119.705C110.032 119.705 108.584 120.291 107.498 121.462C106.433 122.634 105.9 124.22 105.9 126.222C105.9 128.203 106.433 129.79 107.498 130.983C108.584 132.154 110.032 132.74 111.843 132.74ZM131.719 115.072V128.491C131.719 129.832 132.049 130.865 132.709 131.59C133.369 132.314 134.338 132.676 135.616 132.676C136.894 132.676 137.874 132.314 138.556 131.59C139.237 130.865 139.578 129.832 139.578 128.491V115.072H145.041V128.459C145.041 130.461 144.615 132.154 143.763 133.538C142.911 134.923 141.761 135.966 140.313 136.669C138.886 137.372 137.288 137.724 135.521 137.724C133.753 137.724 132.166 137.383 130.76 136.701C129.376 135.998 128.279 134.955 127.47 133.57C126.66 132.165 126.256 130.461 126.256 128.459V115.072H131.719ZM168.941 137.5H163.478L154.34 123.666V137.5H148.877V115.072H154.34L163.478 128.97V115.072H168.941V137.5ZM189.035 115.072V119.449H183.092V137.5H177.629V119.449H171.687V115.072H189.035Z" fill="white"/>
</svg>
